# Blender 4.1.1
# www.blender.org
o SM_Potion_01
v -0.000000 0.259656 -0.233414
v 0.050707 0.325598 -0.087826
v 0.116707 0.259656 -0.202142
v 0.162799 0.136580 -0.281976
v 0.176212 -0.015016 -0.305209
v 0.162799 -0.159774 -0.281976
v 0.124601 -0.272540 -0.215815
v -0.027782 0.496343 -0.103684
v 0.087826 0.325598 -0.050707
v 0.202142 0.259656 -0.116707
v 0.281976 0.136580 -0.162799
v 0.305209 -0.015016 -0.176212
v 0.281976 -0.159774 -0.162799
v 0.215815 -0.272540 -0.124601
v 0.111682 -0.325780 -0.111872
v 0.101413 0.325598 -0.000000
v 0.233414 0.259656 -0.000000
v 0.325598 0.136580 -0.000000
v 0.352425 -0.015016 -0.000000
v 0.325598 -0.159774 -0.000000
v 0.249202 -0.272540 -0.000000
v 0.152527 -0.325780 0.040561
v 0.087826 0.325598 0.050707
v 0.202142 0.259656 0.116707
v 0.281976 0.136580 0.162799
v 0.305209 -0.015016 0.176212
v 0.281976 -0.159774 0.162799
v 0.215815 -0.272540 0.124601
v -0.103684 0.496343 -0.027782
v 0.050707 0.325598 0.087826
v 0.116707 0.259656 0.202142
v 0.162799 0.136580 0.281976
v 0.176212 -0.015016 0.305209
v 0.162799 -0.159774 0.281976
v 0.124601 -0.272540 0.215815
v -0.075902 0.496343 0.075902
v -0.000000 0.325598 0.101413
v -0.000000 0.259656 0.233414
v -0.000000 0.136580 0.325598
v -0.000000 -0.015016 0.352425
v -0.000000 -0.159774 0.325598
v -0.000000 -0.272540 0.249202
v 0.040938 -0.325780 0.152149
v -0.050707 0.325598 0.087826
v -0.116707 0.259656 0.202142
v -0.162799 0.136580 0.281976
v -0.176212 -0.015016 0.305209
v -0.162799 -0.159774 0.281976
v -0.124601 -0.272540 0.215815
v -0.111494 -0.325780 0.111305
v 0.056148 0.488833 -0.056148
v -0.087826 0.325598 0.050707
v -0.202142 0.259656 0.116707
v -0.281976 0.136580 0.162799
v -0.305209 -0.015016 0.176212
v -0.281976 -0.159774 0.162799
v -0.215815 -0.272540 0.124601
v 0.027782 0.496343 0.103684
v -0.001523 -0.325780 0.004586
v -0.101413 0.325598 -0.000000
v -0.233414 0.259656 -0.000000
v -0.325598 0.136580 -0.000000
v -0.352425 -0.015016 -0.000000
v -0.325598 -0.159774 -0.000000
v -0.249202 -0.272540 -0.000000
v 0.103684 0.496343 0.027782
v -0.087826 0.325598 -0.050707
v -0.202142 0.259656 -0.116707
v -0.281976 0.136580 -0.162799
v -0.305209 -0.015016 -0.176212
v -0.281976 -0.159774 -0.162799
v -0.215815 -0.272540 -0.124601
v -0.152338 -0.325780 -0.041127
v -0.050707 0.325598 -0.087826
v -0.116707 0.259656 -0.202142
v -0.162799 0.136580 -0.281976
v -0.176212 -0.015016 -0.305209
v -0.162799 -0.159774 -0.281976
v -0.124601 -0.272540 -0.215815
v -0.040750 -0.325780 -0.152716
v -0.000000 0.325598 -0.101413
v -0.000000 0.136580 -0.325598
v -0.000000 -0.015016 -0.352425
v -0.000000 -0.159774 -0.325598
v 0.000000 -0.272540 -0.249202
v 0.075902 0.496343 -0.075902
v 0.075902 0.544191 -0.075902
v 0.103684 0.544191 0.027782
v 0.076700 0.488833 0.020552
v 0.027782 0.544191 0.103684
v 0.020552 0.488833 0.076700
v -0.056148 0.488833 0.056148
v -0.075902 0.544191 0.075902
v -0.103684 0.544191 -0.027782
v -0.076700 0.488833 -0.020552
v -0.020552 0.488833 -0.076700
v -0.027782 0.544191 -0.103684
v 0.020552 0.370270 0.076700
v -0.076700 0.370270 -0.020552
v 0.056148 0.370270 -0.056148
v -0.056148 0.370270 0.056148
v -0.020552 0.370270 -0.076700
v 0.076700 0.370270 0.020552
v -0.068264 0.432794 -0.018291
v 0.068264 0.432794 0.018291
v -0.018291 0.432794 -0.068264
v -0.049972 0.432794 0.049972
v 0.049972 0.432794 -0.049972
v 0.000000 0.544191 -0.000000
v 0.018291 0.432794 0.068264
vn -0.0000 0.7492 -0.6623
vn 0.3095 0.7529 -0.5808
vn 0.3312 0.7492 -0.5736
vn 0.4616 0.3844 -0.7995
vn 0.5000 -0.0039 -0.8660
vn 0.4649 -0.3682 -0.8052
vn 0.3367 -0.7223 -0.6041
vn -0.2196 -0.5291 -0.8197
vn 0.5808 0.7529 -0.3095
vn 0.5736 0.7492 -0.3312
vn 0.7995 0.3844 -0.4616
vn 0.8660 -0.0039 -0.5000
vn 0.8052 -0.3682 -0.4649
vn 0.6040 -0.7224 -0.3366
vn 0.2117 -0.9541 -0.2119
vn 0.6578 0.7529 -0.0224
vn 0.6623 0.7492 -0.0000
vn 0.9232 0.3844 -0.0000
vn 1.0000 -0.0039 -0.0000
vn 0.9297 -0.3682 -0.0000
vn 0.6913 -0.7225 -0.0104
vn 0.2888 -0.9543 0.0771
vn 0.5584 0.7529 0.3483
vn 0.5736 0.7492 0.3312
vn 0.7995 0.3844 0.4616
vn 0.8660 -0.0039 0.5000
vn 0.8052 -0.3682 0.4649
vn 0.5932 -0.7228 0.3546
vn -0.8197 -0.5291 -0.2196
vn 0.3483 0.7529 0.5584
vn 0.3312 0.7492 0.5736
vn 0.4616 0.3844 0.7995
vn 0.5000 -0.0039 0.8660
vn 0.4649 -0.3682 0.8052
vn 0.3544 -0.7229 0.5932
vn -0.6000 -0.5291 0.6000
vn -0.0224 0.7529 0.6578
vn -0.0000 0.7492 0.6623
vn -0.0000 0.3844 0.9232
vn -0.0000 -0.0039 1.0000
vn -0.0000 -0.3682 0.9297
vn -0.0104 -0.7230 0.6908
vn 0.0773 -0.9545 0.2881
vn -0.3095 0.7529 0.5808
vn -0.3312 0.7492 0.5736
vn -0.4616 0.3844 0.7995
vn -0.5000 -0.0039 0.8660
vn -0.4649 -0.3682 0.8052
vn -0.3364 -0.7230 0.6034
vn -0.2110 -0.9545 0.2108
vn 0.4522 -0.7687 -0.4522
vn -0.5808 0.7529 0.3095
vn -0.5736 0.7492 0.3312
vn -0.7995 0.3844 0.4616
vn -0.8660 -0.0039 0.5000
vn -0.8052 -0.3682 0.4649
vn -0.6035 -0.7229 0.3365
vn 0.2196 -0.5291 0.8197
vn -0.0000 -1.0000 -0.0000
vn -0.6578 0.7529 0.0224
vn -0.6623 0.7492 -0.0000
vn -0.9232 0.3844 -0.0000
vn -1.0000 -0.0039 -0.0000
vn -0.9297 -0.3682 -0.0000
vn -0.6910 -0.7228 0.0105
vn 0.8197 -0.5291 0.2196
vn -0.5584 0.7529 -0.3483
vn -0.5736 0.7492 -0.3312
vn -0.7995 0.3844 -0.4616
vn -0.8660 -0.0039 -0.5000
vn -0.8052 -0.3682 -0.4649
vn -0.5934 -0.7225 -0.3546
vn -0.2886 -0.9543 -0.0776
vn -0.3483 0.7529 -0.5584
vn -0.3312 0.7492 -0.5736
vn -0.4616 0.3844 -0.7995
vn -0.5000 -0.0039 -0.8660
vn -0.4649 -0.3682 -0.8052
vn -0.3548 -0.7224 -0.5935
vn -0.0774 -0.9541 -0.2894
vn 0.0224 0.7529 -0.6578
vn -0.0000 0.3844 -0.9232
vn -0.0000 -0.0039 -1.0000
vn -0.0000 -0.3682 -0.9297
vn 0.0105 -0.7223 -0.6915
vn 0.6000 -0.5291 -0.6000
vn 0.5603 0.6100 -0.5603
vn 0.7654 0.6100 0.2051
vn 0.6178 -0.7687 0.1655
vn 0.2051 0.6100 0.7654
vn 0.1655 -0.7687 0.6178
vn -0.4522 -0.7687 0.4522
vn -0.5603 0.6100 0.5603
vn -0.7654 0.6100 -0.2051
vn -0.6178 -0.7687 -0.1655
vn -0.1655 -0.7687 -0.6178
vn -0.2051 0.6100 -0.7654
vn 0.2400 0.3747 0.8956
vn -0.8956 0.3747 -0.2400
vn 0.6556 0.3747 -0.6556
vn -0.6556 0.3747 0.6556
vn -0.2400 0.3747 -0.8956
vn 0.8956 0.3747 0.2400
vn -0.9659 -0.0083 -0.2588
vn 0.9659 -0.0083 0.2588
vn -0.2588 -0.0083 -0.9659
vn -0.7071 -0.0083 0.7071
vn 0.7071 -0.0083 -0.7071
vn -0.0000 1.0000 -0.0000
vn 0.2588 -0.0083 0.9659
vt 0.501780 0.026557
vt 0.544965 0.026557
vt 0.377153 0.026557
vt 0.500000 0.093031
vt 0.500000 0.218979
vt 0.282890 0.218979
vt 0.333831 0.093031
vt 0.500000 0.371307
vt 0.500000 0.535883
vt 0.282890 0.535883
vt 0.265002 0.371307
vt 0.500000 0.671461
vt 0.500000 0.744101
vt 0.432377 0.744101
vt 0.344359 0.671461
vt 0.601223 0.932190
vt 0.462950 0.932190
vt 0.462950 0.984899
vt 0.601223 0.984899
vt 0.382874 0.744101
vt 0.230421 0.671461
vt 0.212187 0.093031
vt 0.092971 0.371307
vt 0.123954 0.218980
vt 0.123954 0.535883
vt 0.361726 0.932190
vt 0.398777 0.932190
vt 0.398777 0.984899
vt 0.361726 0.984899
vt 0.472592 0.923918
vt 0.397713 0.923918
vt 0.167662 0.093031
vt 0.332188 0.026557
vt 0.030003 0.371307
vt 0.065780 0.218980
vt 0.188718 0.671461
vt 0.065780 0.535883
vt 0.408963 0.862186
vt 0.433356 0.862186
vt 0.425120 0.923918
vt 0.364754 0.744101
vt 0.524393 0.862186
vt 0.591037 0.862186
vt 0.602288 0.923918
vt 0.527408 0.923918
vt 0.574880 0.923918
vt 0.638274 0.932190
vt 0.230421 0.671461
vt 0.282890 0.218980
vt 0.282890 0.535883
vt 0.344359 0.671461
vt 0.455035 0.026557
vt 0.537050 0.932190
vt 0.638274 0.984899
vt 0.537050 0.984899
vt 0.500000 0.218980
vt 0.500000 0.671461
vt 0.500000 0.535883
vt 0.566644 0.862186
vt 0.475607 0.862186
vt 0.734998 0.371307
vt 0.717110 0.218980
vt 0.655641 0.671461
vt 0.717110 0.535883
vt 0.622847 0.026557
vt 0.666169 0.093031
vt 0.567623 0.744101
vt 0.876046 0.218980
vt 0.787813 0.093031
vt 0.876046 0.535883
vt 0.907029 0.371307
vt 0.617126 0.744101
vt 0.769579 0.671461
vt 0.934221 0.535883
vt 0.969997 0.371307
vt 0.635246 0.744101
vt 0.811283 0.671461
vt 0.832338 0.093031
vt 0.667812 0.026557
vt 0.934221 0.218980
vt 0.769579 0.671461
vt 0.655641 0.671461
vt 0.717110 0.535883
vt 0.717110 0.218979
vt 0.397713 0.793311
vt 0.472592 0.793311
vt 0.602288 0.793311
vt 0.527408 0.793311
vt 0.425120 0.793311
vt 0.574880 0.793311
vt 0.500000 0.984899
s 1
f 59/1/59 80/2/80 15/3/15
f 85/4/85 84/5/84 6/6/6 7/7/7
f 83/8/83 82/9/82 4/10/4 5/11/5
f 1/12/1 81/13/81 2/14/2 3/15/3
f 80/2/80 85/4/85 7/7/7 15/3/15
f 84/5/84 83/8/83 5/11/5 6/6/6
f 82/9/82 1/12/1 3/15/3 4/10/4
f 36/16/36 58/17/58 90/18/90 93/19/93
f 3/15/3 2/14/2 9/20/9 10/21/10
f 15/3/15 7/7/7 14/22/14
f 6/6/6 5/11/5 12/23/12 13/24/13
f 4/10/4 3/15/3 10/21/10 11/25/11
f 66/26/66 86/27/86 87/28/87 88/29/88
f 91/30/91 89/31/89 66/26/66 58/17/58
f 7/7/7 6/6/6 13/24/13 14/22/14
f 5/11/5 4/10/4 11/25/11 12/23/12
f 15/3/15 14/22/14 21/32/21 22/33/22
f 13/24/13 12/23/12 19/34/19 20/35/20
f 11/25/11 10/21/10 17/36/17 18/37/18
f 105/38/105 108/39/108 51/40/51 89/31/89
f 59/1/59 15/3/15 22/33/22
f 14/22/14 13/24/13 20/35/20 21/32/21
f 12/23/12 11/25/11 18/37/18 19/34/19
f 10/21/10 9/20/9 16/41/16 17/36/17
f 106/42/106 104/43/104 95/44/95 96/45/96
f 95/44/95 92/46/92 36/16/36 29/47/29
f 21/32/21 20/35/20 27/24/27 28/22/28
f 19/34/19 18/37/18 25/25/25 26/23/26
f 17/36/17 16/41/16 23/20/23 24/48/24
f 22/33/22 21/32/21 28/22/28
f 20/35/20 19/34/19 26/23/26 27/24/27
f 18/37/18 17/36/17 24/48/24 25/25/25
f 28/22/28 27/24/27 34/49/34 35/7/35
f 26/23/26 25/25/25 32/50/32 33/11/33
f 24/48/24 23/20/23 30/14/30 31/51/31
f 22/33/22 28/22/28 35/7/35 43/52/43
f 27/24/27 26/23/26 33/11/33 34/49/34
f 25/25/25 24/48/24 31/51/31 32/50/32
f 8/53/8 29/47/29 94/54/94 97/55/97
f 59/1/59 22/33/22 43/52/43
f 43/52/43 35/7/35 42/4/42
f 34/49/34 33/11/33 40/8/40 41/56/41
f 32/50/32 31/51/31 38/57/38 39/58/39
f 107/59/107 110/60/110 91/30/91 92/46/92
f 92/46/92 91/30/91 58/17/58 36/16/36
f 35/7/35 34/49/34 41/56/41 42/4/42
f 33/11/33 32/50/32 39/58/39 40/8/40
f 31/51/31 30/14/30 37/13/37 38/57/38
f 41/56/41 40/8/40 47/61/47 48/62/48
f 39/58/39 38/57/38 45/63/45 46/64/46
f 58/17/58 66/26/66 88/29/88 90/18/90
f 59/1/59 43/52/43 50/65/50
f 42/4/42 41/56/41 48/62/48 49/66/49
f 40/8/40 39/58/39 46/64/46 47/61/47
f 38/57/38 37/13/37 44/67/44 45/63/45
f 43/52/43 42/4/42 49/66/49 50/65/50
f 89/31/89 51/40/51 86/27/86 66/26/66
f 49/66/49 48/62/48 56/68/56 57/69/57
f 47/61/47 46/64/46 54/70/54 55/71/55
f 45/63/45 44/67/44 52/72/52 53/73/53
f 50/65/50 49/66/49 57/69/57
f 48/62/48 47/61/47 55/71/55 56/68/56
f 46/64/46 45/63/45 53/73/53 54/70/54
f 104/43/104 107/59/107 92/46/92 95/44/95
f 55/71/55 54/70/54 62/74/62 63/75/63
f 53/73/53 52/72/52 60/76/60 61/77/61
f 50/65/50 57/69/57 65/78/65 73/79/73
f 56/68/56 55/71/55 63/75/63 64/80/64
f 54/70/54 53/73/53 61/77/61 62/74/62
f 108/39/108 106/42/106 96/45/96 51/40/51
f 59/1/59 50/65/50 73/79/73
f 57/69/57 56/68/56 64/80/64 65/78/65
f 73/79/73 65/78/65 72/69/72
f 64/80/64 63/75/63 70/71/70 71/68/71
f 62/74/62 61/77/61 68/81/68 69/70/69
f 86/27/86 8/53/8 97/55/97 87/28/87
f 96/45/96 95/44/95 29/47/29 8/53/8
f 65/78/65 64/80/64 71/68/71 72/69/72
f 63/75/63 62/74/62 69/70/69 70/71/70
f 61/77/61 60/76/60 67/72/67 68/81/68
f 69/70/69 68/81/68 75/82/75 76/83/76
f 29/47/29 36/16/36 93/19/93 94/54/94
f 59/1/59 73/79/73 80/2/80
f 72/69/72 71/68/71 78/84/78 79/66/79
f 70/71/70 69/70/69 76/83/76 77/61/77
f 68/81/68 67/72/67 74/67/74 75/82/75
f 73/79/73 72/69/72 79/66/79 80/2/80
f 71/68/71 70/71/70 77/61/77 78/84/78
f 51/40/51 96/45/96 8/53/8 86/27/86
f 79/66/79 78/84/78 84/5/84 85/4/85
f 77/61/77 76/83/76 82/9/82 83/8/83
f 75/82/75 74/67/74 81/13/81 1/12/1
f 80/2/80 79/66/79 85/4/85
f 78/84/78 77/61/77 83/8/83 84/5/84
f 76/83/76 75/82/75 1/12/1 82/9/82
f 110/60/110 105/38/105 89/31/89 91/30/91
f 30/14/30 23/20/23 103/85/103 98/86/98
f 67/72/67 60/76/60 99/87/99
f 37/13/37 30/14/30 98/86/98
f 2/14/2 81/13/81 102/88/102 100/89/100
f 60/76/60 52/72/52 101/90/101 99/87/99
f 9/20/9 2/14/2 100/89/100
f 44/67/44 37/13/37 98/86/98 101/90/101
f 52/72/52 44/67/44 101/90/101
f 74/67/74 67/72/67 99/87/99 102/88/102
f 16/41/16 9/20/9 100/89/100 103/85/103
f 23/20/23 16/41/16 103/85/103
f 81/13/81 74/67/74 102/88/102
f 94/54/94 93/19/93 109/91/109
f 88/29/88 87/28/87 109/91/109
f 97/55/97 94/54/94 109/91/109
f 93/19/93 90/18/90 109/91/109
f 90/18/90 88/29/88 109/91/109
f 87/28/87 97/55/97 109/91/109
f 98/86/98 103/85/103 105/38/105 110/60/110
f 100/89/100 102/88/102 106/42/106 108/39/108
f 99/87/99 101/90/101 107/59/107 104/43/104
f 101/90/101 98/86/98 110/60/110 107/59/107
f 102/88/102 99/87/99 104/43/104 106/42/106
f 103/85/103 100/89/100 108/39/108 105/38/105
