# Blender 4.3.2
# www.blender.org
mtllib SM_LogoText_01.mtl
o SM_LogoText_01
v 1.184341 -4.339782 6.764585 1.0000 1.0000 1.0000
v 1.184341 -2.384221 4.693571 1.0000 1.0000 1.0000
v 1.184341 -2.268769 8.720145 1.0000 1.0000 1.0000
v 1.184341 -0.313208 6.649130 1.0000 1.0000 1.0000
v 1.184341 -2.040619 5.388224 1.0000 1.0000 1.0000
v 1.184341 -1.007143 3.077203 1.0000 1.0000 1.0000
v 1.184341 0.270402 6.421698 1.0000 1.0000 1.0000
v 1.184341 1.303877 4.110678 1.0000 1.0000 1.0000
v 1.184341 -1.444326 2.921716 1.0000 1.0000 1.0000
v 1.184341 -0.936266 0.508142 1.0000 1.0000 1.0000
v 1.184341 0.969248 3.429775 1.0000 1.0000 1.0000
v 1.184341 1.477308 1.016201 1.0000 1.0000 1.0000
v 1.184341 -0.331091 0.451858 1.0000 1.0000 1.0000
v 1.184341 -0.007279 -1.993262 1.0000 1.0000 1.0000
v 1.184341 2.114029 0.775670 1.0000 1.0000 1.0000
v 1.184341 2.437841 -1.669450 1.0000 1.0000 1.0000
v 1.184341 -0.539316 -1.995330 1.0000 1.0000 1.0000
v 1.184341 -0.566190 -4.461651 1.0000 1.0000 1.0000
v 1.184341 1.927006 -2.022206 1.0000 1.0000 1.0000
v 1.184341 1.900131 -4.488527 1.0000 1.0000 1.0000
v 1.184341 -0.128727 -4.371957 1.0000 1.0000 1.0000
v 1.184341 -0.303863 -6.832201 1.0000 1.0000 1.0000
v 1.184341 2.331516 -4.547095 1.0000 1.0000 1.0000
v 1.184341 2.156379 -7.007337 1.0000 1.0000 1.0000
v 1.270036 -5.040682 4.021314 1.0000 1.0000 1.0000
v 1.270036 -5.040682 -13.415363 1.0000 1.0000 1.0000
v 1.270036 -1.624066 4.021317 1.0000 1.0000 1.0000
v 1.270036 -1.624066 -13.415363 1.0000 1.0000 1.0000
vn 1.0000 -0.0000 -0.0000
vt 0.019034 0.690827
vt 0.306712 0.690827
vt 0.306712 0.978506
vt 0.019034 0.978506
vt 0.316788 0.690827
vt 0.604467 0.690827
vt 0.604467 0.978506
vt 0.316788 0.978506
vt 0.631802 0.690827
vt 0.968629 0.690827
vt 0.968629 0.978506
vt 0.631802 0.978506
vt 0.022440 0.386921
vt 0.315609 0.386921
vt 0.315609 0.674599
vt 0.022440 0.674599
vt 0.323178 0.383820
vt 0.616347 0.383820
vt 0.616347 0.671499
vt 0.323178 0.671499
vt 0.633727 0.383820
vt 0.910375 0.383820
vt 0.910375 0.671499
vt 0.633727 0.671499
vt 0.008796 0.062265
vt 0.993530 0.062265
vt 0.993530 0.293010
vt 0.008796 0.293010
s 0
usemtl LogoText
f 1/1/1 2/2/1 4/3/1 3/4/1
f 5/5/1 6/6/1 8/7/1 7/8/1
f 9/9/1 10/10/1 12/11/1 11/12/1
f 13/13/1 14/14/1 16/15/1 15/16/1
f 17/17/1 18/18/1 20/19/1 19/20/1
f 21/21/1 22/22/1 24/23/1 23/24/1
f 25/25/1 26/26/1 28/27/1 27/28/1
