# Blender 4.3.2
# www.blender.org
mtllib SM_Logo_01.mtl
o SM_Logo_01
v 1.000000 -4.985785 8.201416 0.0000 0.0000 0.0000
v 1.000000 -4.442198 7.595188 0.0000 0.0000 0.0000
v 1.000000 -4.087944 9.042915 0.0000 0.0000 0.0000
v 1.000000 -3.348024 8.191586 0.0000 0.0000 0.0000
v 1.000000 -4.442198 4.200814 0.0000 0.0000 0.0000
v 1.000000 -7.484362 4.200814 0.0000 0.0000 0.0000
v 1.000000 -7.484362 2.594195 0.0000 0.0000 0.0000
v 1.000000 -5.892206 2.594195 0.0000 0.0000 0.0000
v 1.000000 -5.892206 -11.300055 0.0000 0.0000 0.0000
v 1.000000 -3.070244 -14.337584 0.0000 0.0000 0.0000
v 1.000000 -0.287474 -11.300055 0.0000 0.0000 0.0000
v 1.000000 -0.315718 -10.516012 0.0000 0.0000 0.0000
v 1.000000 0.376694 -10.194395 0.1569 0.1569 0.1569
v 1.000000 1.655854 -8.804865 0.9568 0.9568 0.9568
v 1.000000 2.938134 -7.853952 0.9176 0.9176 0.9176
v 1.000000 4.876273 -6.452093 1.0000 1.0000 1.0000
v 1.000000 5.777594 -5.148537 1.0000 1.0000 1.0000
v 1.000000 6.547331 -3.933706 1.0000 1.0000 1.0000
v 1.000000 7.621306 -1.776159 1.0000 1.0000 1.0000
v 1.000000 8.516869 1.937981 1.0000 1.0000 1.0000
v 1.000000 9.110139 5.025403 1.0000 1.0000 1.0000
v 1.000000 9.318160 9.013370 1.0000 1.0000 1.0000
v 1.000000 9.366949 11.142514 1.0000 1.0000 1.0000
v 1.000000 8.823406 13.702527 0.9725 0.9725 0.9725
v 1.000000 7.445853 16.186428 1.0000 1.0000 1.0000
v 1.000000 5.937763 17.169939 1.0000 1.0000 1.0000
v 1.000000 4.607198 17.293396 1.0000 1.0000 1.0000
v 1.000000 3.296443 16.898354 0.9882 0.9882 0.9882
v 1.000000 1.247283 16.300262 1.0000 1.0000 1.0000
v 1.000000 0.212212 14.107847 1.0000 1.0000 1.0000
v 1.000000 -0.603868 12.157325 0.9607 0.9607 0.9607
v 1.000000 -1.381812 11.284639 0.9529 0.9529 0.9529
v 1.000000 -2.686142 10.311481 0.9647 0.9647 0.9647
v 1.000000 -3.087928 9.427168 0.9176 0.9176 0.9176
v 1.000000 -3.347759 8.744690 0.0000 0.0000 0.0000
v 1.000000 -4.087944 9.487051 0.0000 0.0000 0.0000
v 1.000000 -5.456713 8.201416 0.0000 0.0000 0.0000
v 1.000000 -4.799528 7.433100 0.0000 0.0000 0.0000
v 1.000000 -4.939512 4.642872 0.0000 0.0000 0.0000
v 1.000000 -8.018515 4.606033 0.0000 0.0000 0.0000
v 1.000000 -8.055353 2.060042 0.0000 0.0000 0.0000
v 1.000000 -6.426359 2.060042 0.0000 0.0000 0.0000
v 1.000000 -6.444778 -11.650019 0.0000 0.0000 0.0000
v 1.000000 -3.070244 -15.311323 0.0000 0.0000 0.0000
v 1.000000 0.320356 -11.963140 0.0000 0.0000 0.0000
v 1.000000 -2.355713 9.112013 0.5019 0.5019 0.5019
v 1.000000 -2.867684 8.559901 0.0000 0.0000 0.0000
v 1.000000 -0.361929 -8.429453 0.0000 0.0000 0.0000
v 1.000000 0.904430 -7.437076 0.0902 0.0902 0.0902
v 1.000000 2.128494 -6.644644 0.2196 0.2196 0.2196
v 1.000000 3.968071 -5.947793 0.7764 0.7764 0.7764
v 1.000000 4.824136 -4.714108 0.8000 0.8000 0.8000
v 1.000000 5.701540 -3.615144 0.8862 0.8862 0.8862
v 1.000000 6.357397 -0.678333 0.8784 0.8784 0.8784
v 1.000000 6.826791 2.370562 0.9176 0.9176 0.9176
v 1.000000 7.221229 5.541460 0.9333 0.9333 0.9333
v 1.000000 7.317857 8.489256 0.8902 0.8902 0.8902
v 1.000000 7.259281 10.717960 0.9686 0.9686 0.9686
v 1.000000 6.697352 12.711425 0.9529 0.9529 0.9529
v 1.000000 6.000228 13.881127 0.9568 0.9568 0.9568
v 1.000000 5.216249 14.727029 0.9607 0.9607 0.9607
v 1.000000 4.090866 15.272058 0.9686 0.9686 0.9686
v 1.000000 2.872434 15.300358 0.9568 0.9568 0.9568
v 1.000000 1.917067 13.616509 0.9294 0.9294 0.9294
v 1.000000 0.552873 11.961503 0.6980 0.6980 0.6980
v 1.000000 -0.461546 10.530539 0.5843 0.5843 0.5843
v 1.000000 -1.240233 9.702217 0.5059 0.5059 0.5059
v 1.000000 4.761963 0.607226 0.2549 0.2549 0.2549
v 1.000000 5.037209 3.025780 0.2941 0.2941 0.2941
v 1.000000 5.479907 5.761896 0.3294 0.3294 0.3294
v 1.000000 5.619626 8.350445 0.2549 0.2549 0.2549
v 1.000000 3.674727 -4.092029 0.2627 0.2627 0.2627
v 1.000000 4.383085 -2.345426 0.3216 0.3216 0.3216
v 1.000000 5.548311 10.658989 0.7176 0.7176 0.7176
v 1.000000 5.398539 11.855334 0.9294 0.9294 0.9294
v 1.000000 0.962512 11.054761 0.2863 0.2863 0.2863
v 1.000000 4.258475 13.144861 0.9451 0.9451 0.9451
v 1.000000 3.006785 12.283237 0.7568 0.7568 0.7568
v 1.000000 -0.068902 9.571099 0.1451 0.1451 0.1451
v 1.000000 1.289860 -5.810943 0.0784 0.0784 0.0784
v 1.000000 3.019017 -5.180374 0.3059 0.3059 0.3059
v 1.000000 -0.237861 -6.504726 0.0000 0.0000 0.0000
v 1.000000 -1.134125 8.790882 0.0627 0.0627 0.0627
v 1.000000 -3.352074 2.104275 0.0000 0.0000 0.0000
v 1.000000 -2.114429 8.290509 0.0000 0.0000 0.0000
v 1.000000 -2.779931 8.094422 0.0000 0.0000 0.0000
v 1.000000 -4.442198 7.017160 0.0000 0.0000 0.0000
v 1.000000 -4.834177 6.870021 0.0000 0.0000 0.0000
v 1.000000 -3.349381 7.153645 0.0000 0.0000 0.0000
v 1.000000 3.684921 11.377381 0.4471 0.4471 0.4471
v 1.000000 4.192844 10.348529 0.2039 0.2039 0.2039
v 1.000000 4.311420 8.256454 0.1922 0.1922 0.1922
v 1.000000 4.040864 6.014486 0.2392 0.2392 0.2392
v 1.000000 3.894031 3.754724 0.1373 0.1373 0.1373
v 1.000000 3.704102 1.209877 0.1451 0.1451 0.1451
v 1.000000 3.123742 -1.595635 0.0000 0.0000 0.0000
v 1.000000 2.548050 -3.307267 0.0000 0.0000 0.0000
v 1.000000 1.498991 -4.143206 0.0000 0.0000 0.0000
v 1.000000 -0.712000 -4.789349 0.0000 0.0000 0.0000
v 1.000000 1.774961 10.547214 0.2353 0.2353 0.2353
v 1.000000 0.392991 8.768716 0.0000 0.0000 0.0000
v 1.000000 -2.758841 7.208282 0.0000 0.0000 0.0000
v 1.000000 -0.927931 7.894594 0.0000 0.0000 0.0000
v 1.000000 -1.899668 7.399833 0.0000 0.0000 0.0000
v 1.000000 -2.444381 -5.081604 0.0000 0.0000 0.0000
v 1.000000 -2.335583 -1.388412 0.0000 0.0000 0.0000
v 1.000000 2.548315 9.417536 0.2039 0.2039 0.2039
v 1.000000 1.691361 6.866750 0.0000 0.0000 0.0000
v 1.000000 1.336887 2.833019 0.0000 0.0000 0.0000
v 1.000000 1.815399 4.563190 0.0000 0.0000 0.0000
v 1.000000 1.184763 0.153821 0.0000 0.0000 0.0000
v 1.000000 0.381035 -3.128788 0.0000 0.0000 0.0000
v 1.000000 1.175439 -1.558878 0.0000 0.0000 0.0000
v 1.000000 -0.786125 3.865567 0.0000 0.0000 0.0000
v 1.000000 -0.639940 5.330009 0.0000 0.0000 0.0000
v 1.000000 -2.118134 1.958898 0.0000 0.0000 0.0000
v 1.000000 0.048773 6.549489 0.0000 0.0000 0.0000
v 0.953979 0.751801 -9.436905 0.1569 0.1569 0.1569
v 0.953979 -2.923830 8.789704 0.0000 0.0000 0.0000
v 0.953979 -4.113259 9.959686 0.0000 0.0000 0.0000
v 0.953979 -6.006917 8.196527 0.0000 0.0000 0.0000
v 0.953979 -5.246496 5.004268 0.0000 0.0000 0.0000
v 0.953979 -8.415941 5.001865 0.0000 0.0000 0.0000
v 0.953979 -8.418344 1.684108 0.0000 0.0000 0.0000
v 0.953979 -6.775773 1.702303 0.0000 0.0000 0.0000
v 0.953979 -6.831557 -11.952185 0.0000 0.0000 0.0000
v 0.953979 -3.041610 -16.007715 0.0000 0.0000 0.0000
v 0.953979 0.710672 -12.281906 0.0000 0.0000 0.0000
v 0.953979 0.337120 -7.245766 0.0000 0.0000 0.0000
v 0.953979 -5.177729 7.274224 0.0000 0.0000 0.0000
v 0.953979 -0.559807 -5.073635 0.0000 0.0000 0.0000
v 0.953979 -2.267874 -1.492289 0.0000 0.0000 0.0000
v 0.953979 -2.039028 2.032459 0.0000 0.0000 0.0000
vn 1.0000 -0.0000 -0.0000
vt 0.291648 0.402970
vt 0.280789 0.417111
vt 0.255327 0.410610
vt 0.275396 0.402970
vt 0.264533 0.432177
vt 0.229321 0.422426
vt 0.200271 0.460467
vt 0.247077 0.465017
vt 0.221970 0.487067
vt 0.171913 0.481216
vt 0.173497 0.511717
vt 0.111739 0.501966
vt 0.120920 0.550132
vt 0.080615 0.546232
vt 0.092313 0.574881
vt 0.048107 0.579431
vt 0.071023 0.594704
vt 0.018366 0.606406
vt 0.068090 0.624612
vt 0.012833 0.638914
vt 0.082739 0.637326
vt 0.029432 0.666580
vt 0.102370 0.647051
vt 0.064015 0.676955
vt 0.153152 0.648226
vt 0.119348 0.674880
vt 0.228999 0.658824
vt 0.202346 0.699779
vt 0.322679 0.659198
vt 0.311628 0.706004
vt 0.426692 0.638959
vt 0.430592 0.672113
vt 0.514006 0.624185
vt 0.520507 0.653438
vt 0.585606 0.598427
vt 0.586906 0.625081
vt 0.636304 0.593752
vt 0.640855 0.623006
vt 0.682993 0.576211
vt 0.703796 0.601564
vt 0.711008 0.542789
vt 0.744812 0.565542
vt 0.739340 0.517894
vt 0.772494 0.539347
vt 0.804575 0.513652
vt 0.828595 0.492975
vt 0.774672 0.490899
vt 0.864951 0.492975
vt 0.884454 0.510852
vt 0.954290 0.411129
vt 0.982929 0.411129
vt 0.864951 0.328130
vt 0.875244 0.311878
vt 0.456299 0.328130
vt 0.472009 0.312420
vt 0.456299 0.281302
vt 0.472009 0.264509
vt 0.409045 0.281302
vt 0.397127 0.265592
vt 0.409045 0.370777
vt 0.396044 0.356150
vt 0.326212 0.370777
vt 0.309211 0.370777
vt 0.313978 0.360268
vt 0.330540 0.359249
vt 0.291381 0.354790
vt 0.291381 0.340939
vt 0.266631 0.381196
vt 0.253568 0.381196
vt 0.682028 0.429492
vt 0.273730 0.468268
vt 0.250573 0.498119
vt 0.408508 0.606302
vt 0.463281 0.597034
vt 0.271825 0.617944
vt 0.327959 0.618168
vt 0.580919 0.573818
vt 0.615638 0.559854
vt 0.145106 0.624316
vt 0.192495 0.623487
vt 0.113769 0.601715
vt 0.150174 0.568335
vt 0.202101 0.522769
vt 0.656340 0.554758
vt 0.692805 0.526537
vt 0.722015 0.491549
vt 0.288586 0.439328
vt 0.322138 0.402949
vt 0.669815 0.475151
vt 0.573434 0.432736
vt 0.294441 0.419711
vt 0.470696 0.402846
vt 0.282877 0.588690
vt 0.215898 0.588383
vt 0.179561 0.581410
vt 0.449629 0.563880
vt 0.567268 0.540664
vt 0.393556 0.576398
vt 0.331209 0.584364
vt 0.604586 0.533851
vt 0.635537 0.517054
vt 0.217265 0.541755
vt 0.314590 0.445829
vt 0.299734 0.474769
vt 0.320444 0.420361
vt 0.273976 0.511120
vt 0.253603 0.559779
vt 0.323408 0.544059
vt 0.381205 0.539993
vt 0.434677 0.524225
vt 0.523712 0.511410
vt 0.572952 0.507655
vt 0.617158 0.494003
vt 0.336730 0.504201
vt 0.373146 0.483151
vt 0.416332 0.476863
vt 0.474846 0.439200
s 0
usemtl Background_Material
f 4/1/1 47/2/1 34/3/1 35/4/1
f 34/3/1 47/2/1 46/5/1 33/6/1
f 32/7/1 33/6/1 46/5/1 67/8/1
f 32/7/1 67/8/1 66/9/1 31/10/1
f 31/10/1 66/9/1 65/11/1 30/12/1
f 30/12/1 65/11/1 64/13/1 29/14/1
f 29/14/1 64/13/1 63/15/1 28/16/1
f 28/16/1 63/15/1 62/17/1 27/18/1
f 27/18/1 62/17/1 61/19/1 26/20/1
f 60/21/1 25/22/1 26/20/1 61/19/1
f 59/23/1 24/24/1 25/22/1 60/21/1
f 58/25/1 23/26/1 24/24/1 59/23/1
f 23/26/1 58/25/1 57/27/1 22/28/1
f 22/28/1 57/27/1 56/29/1 21/30/1
f 21/30/1 56/29/1 55/31/1 20/32/1
f 20/32/1 55/31/1 54/33/1 19/34/1
f 19/34/1 54/33/1 53/35/1 18/36/1
f 18/36/1 53/35/1 52/37/1 17/38/1
f 17/38/1 52/37/1 51/39/1 16/40/1
f 16/40/1 51/39/1 50/41/1 15/42/1
f 15/42/1 50/41/1 49/43/1 14/44/1
f 14/44/1 49/43/1 13/45/1
f 12/46/1 13/45/1 48/47/1
f 11/48/1 45/49/1 13/45/1 12/46/1
f 11/48/1 10/50/1 44/51/1 45/49/1
f 10/50/1 9/52/1 43/53/1 44/51/1
f 9/52/1 8/54/1 42/55/1 43/53/1
f 8/54/1 7/56/1 41/57/1 42/55/1
f 7/56/1 6/58/1 40/59/1 41/57/1
f 6/58/1 5/60/1 39/61/1 40/59/1
f 87/62/1 2/63/1 38/64/1 88/65/1
f 2/63/1 1/66/1 37/67/1 38/64/1
f 1/66/1 3/68/1 36/69/1 37/67/1
f 3/68/1 4/1/1 35/4/1 36/69/1
f 6/58/1 7/56/1 8/54/1 5/60/1
f 10/50/1 11/48/1 9/52/1
f 11/48/1 12/46/1 9/52/1
f 48/47/1 9/52/1 12/46/1
f 9/52/1 48/47/1 105/70/1
f 83/71/1 79/72/1 66/9/1 67/8/1
f 54/33/1 55/31/1 69/73/1 68/74/1
f 56/29/1 57/27/1 71/75/1 70/76/1
f 52/37/1 53/35/1 73/77/1 72/78/1
f 58/25/1 59/23/1 75/79/1 74/80/1
f 59/23/1 60/21/1 77/81/1 75/79/1
f 60/21/1 61/19/1 77/81/1
f 62/17/1 77/81/1 61/19/1
f 63/15/1 77/81/1 62/17/1
f 64/13/1 78/82/1 77/81/1 63/15/1
f 65/11/1 66/9/1 79/72/1 76/83/1
f 65/11/1 76/83/1 78/82/1 64/13/1
f 58/25/1 74/80/1 71/75/1 57/27/1
f 56/29/1 70/76/1 69/73/1 55/31/1
f 53/35/1 54/33/1 68/74/1 73/77/1
f 50/41/1 51/39/1 81/84/1 80/85/1
f 51/39/1 52/37/1 72/78/1 81/84/1
f 49/43/1 50/41/1 80/85/1 82/86/1
f 49/43/1 82/86/1 48/47/1
f 3/68/1 1/66/1 2/63/1 4/1/1
f 85/87/1 83/71/1 67/8/1 46/5/1
f 87/62/1 89/88/1 4/1/1 2/63/1
f 8/54/1 105/70/1 99/89/1 106/90/1
f 47/2/1 86/91/1 85/87/1 46/5/1
f 5/60/1 84/92/1 89/88/1 87/62/1
f 5/60/1 87/62/1 88/65/1 39/61/1
f 47/2/1 4/1/1 86/91/1
f 92/93/1 71/75/1 74/80/1 91/94/1
f 90/95/1 91/94/1 74/80/1 75/79/1
f 75/79/1 77/81/1 78/82/1 90/95/1
f 73/77/1 68/74/1 95/96/1 96/97/1
f 94/98/1 95/96/1 68/74/1 69/73/1
f 93/99/1 94/98/1 69/73/1 70/76/1
f 70/76/1 71/75/1 92/93/1 93/99/1
f 81/84/1 72/78/1 97/100/1 98/101/1
f 72/78/1 73/77/1 96/97/1 97/100/1
f 82/86/1 80/85/1 99/89/1
f 80/85/1 81/84/1 98/101/1 99/89/1
f 76/83/1 100/102/1 90/95/1 78/82/1
f 83/71/1 85/87/1 104/103/1 103/104/1
f 89/88/1 102/105/1 86/91/1 4/1/1
f 85/87/1 86/91/1 102/105/1 104/103/1
f 101/106/1 79/72/1 83/71/1 103/104/1
f 79/72/1 101/106/1 100/102/1 76/83/1
f 91/94/1 90/95/1 100/102/1 107/107/1
f 92/93/1 91/94/1 107/107/1
f 101/106/1 108/108/1 107/107/1 100/102/1
f 93/99/1 92/93/1 107/107/1 108/108/1
f 110/109/1 109/110/1 95/96/1 94/98/1
f 94/98/1 93/99/1 108/108/1 110/109/1
f 96/97/1 95/96/1 109/110/1 111/111/1
f 97/100/1 96/97/1 111/111/1 113/112/1
f 97/100/1 113/112/1 112/113/1 98/101/1
f 99/89/1 98/101/1 112/113/1
f 99/89/1 112/113/1 106/90/1
f 103/104/1 117/114/1 108/108/1 101/106/1
f 103/104/1 104/103/1 115/115/1 117/114/1
f 102/105/1 114/116/1 115/115/1 104/103/1
f 89/88/1 116/117/1 114/116/1 102/105/1
f 89/88/1 84/92/1 116/117/1
f 84/92/1 106/90/1 112/113/1
f 116/117/1 84/92/1 112/113/1 113/112/1
f 108/108/1 117/114/1 110/109/1
f 117/114/1 115/115/1 109/110/1 110/109/1
f 115/115/1 114/116/1 111/111/1 109/110/1
f 114/116/1 116/117/1 113/112/1 111/111/1
f 106/90/1 84/92/1 5/60/1 8/54/1
f 99/89/1 105/70/1 48/47/1 82/86/1
f 105/70/1 8/54/1 9/52/1
f 13/45/1 49/43/1 48/47/1
usemtl Outline_Material
f 133/117/1 122/61/1 125/55/1
f 128/49/1 118/45/1 126/53/1
f 118/45/1 129/86/1 126/53/1
f 129/86/1 131/89/1 126/53/1
f 126/53/1 127/51/1 128/49/1
f 123/59/1 124/57/1 125/55/1
f 125/55/1 126/53/1 132/90/1
f 132/90/1 126/53/1 131/89/1
f 132/90/1 133/117/1 125/55/1
f 133/117/1 119/4/1 122/61/1
f 122/61/1 119/4/1 130/65/1
f 119/4/1 120/69/1 130/65/1
f 120/69/1 121/67/1 130/65/1
f 122/61/1 123/59/1 125/55/1
